<svg viewBox="0 0 10 10" xmlns="http://www.w3.org/2000/svg" xmlns:xlink="http://www.w3.org/1999/xlink" width="10.000000" height="10.000000" fill="none">
	<rect id="basic/link_02" width="10.000000" height="10.000000" x="0.000000" y="0.000000" />
	<path id="Icon" d="M3.52708 8.55627C2.68452 8.55627 1.92491 8.04872 1.60242 7.27032C1.27993 6.49191 1.45806 5.59588 2.05375 5.00001L2.93792 4.11584L3.52708 4.70501L2.64333 5.58876C2.32753 5.90457 2.20419 6.36487 2.31978 6.79627C2.43538 7.22767 2.77234 7.56463 3.20374 7.68023C3.63514 7.79582 4.09544 7.67248 4.41125 7.35668L5.295 6.47293L5.88417 7.06251L5.00042 7.94626C4.61045 8.33815 4.07994 8.55779 3.52708 8.55627ZM3.82167 6.76751L3.2325 6.17834L6.17875 3.23209L6.76792 3.82126L3.82208 6.76709L3.82167 6.76751ZM7.06292 5.88376L6.47334 5.29459L7.35709 4.41084C7.67719 4.09598 7.80384 3.63362 7.68885 3.19958C7.57387 2.76555 7.23493 2.42653 6.80092 2.31144C6.36691 2.19636 5.90452 2.32289 5.58958 2.64293L4.70542 3.52668L4.11625 2.93751L5.00042 2.05334C5.81504 1.24583 7.12916 1.24871 7.94023 2.05978C8.75131 2.87085 8.75418 4.18497 7.94667 4.99959L7.06292 5.88334L7.06292 5.88376Z" fill="rgb(121,129,154)" fill-rule="nonzero" />
</svg>
