<svg viewBox="0 0 10 10" xmlns="http://www.w3.org/2000/svg" xmlns:xlink="http://www.w3.org/1999/xlink" width="10.000000" height="10.000000" fill="none">
	<rect id="basic/location" width="10.000000" height="10.000000" x="0.000000" y="0.000000" />
	<path id="Icon" d="M5 8.74996C4.47372 8.30106 3.98591 7.80893 3.54167 7.27871C2.875 6.48246 2.08333 5.29663 2.08333 4.16663C2.08274 2.98644 2.79344 1.92221 3.88378 1.47054C4.97412 1.01888 6.22919 1.26881 7.06333 2.10371C7.61186 2.6498 7.91913 3.39262 7.91668 4.16663C7.91668 5.29663 7.125 6.48246 6.45833 7.27871C6.01409 7.80893 5.52628 8.30106 5 8.74996ZM5 2.91663C4.55342 2.91663 4.14076 3.15488 3.91747 3.54163C3.69418 3.92838 3.69418 4.40488 3.91747 4.79163C4.14076 5.17838 4.55342 5.41663 5 5.41663C5.69036 5.41663 6.25 4.85698 6.25 4.16663C6.25 3.47627 5.69036 2.91663 5 2.91663Z" fill="rgb(121,129,154)" fill-rule="nonzero" />
</svg>
