<svg viewBox="0 0 10 10" xmlns="http://www.w3.org/2000/svg" xmlns:xlink="http://www.w3.org/1999/xlink" width="10.000000" height="10.000000" fill="none">
	<rect id="basic/mail" width="10.000000" height="10.000000" x="0.000000" y="0.000000" />
	<path id="Icon" d="M8.33333 8.33329L1.66667 8.33329C1.20643 8.33329 0.833334 7.9602 0.833334 7.49996L0.833334 2.46371C0.852754 2.01769 1.22022 1.6662 1.66667 1.66663L8.33333 1.66663C8.79357 1.66663 9.16667 2.03972 9.16667 2.49996L9.16667 7.49996C9.16667 7.9602 8.79357 8.33329 8.33333 8.33329ZM1.66667 3.27829L1.66667 7.49996L8.33333 7.49996L8.33333 3.27829L5 5.49996L1.66667 3.27829ZM2 2.49996L5 4.49996L8 2.49996L2 2.49996Z" fill="rgb(121,129,154)" fill-rule="nonzero" />
</svg>
